<svg xmlns="http://www.w3.org/2000/svg" viewBox="0 0 512 512" width="512" height="512">
  <title>Chat2Doc — CGExcel</title>
  <defs>
    <linearGradient id="bulle" x1="0" y1="0" x2="0" y2="1">
      <stop offset="0" stop-color="#3D72D6"/>
      <stop offset="1" stop-color="#1F3F8F"/>
    </linearGradient>
    <radialGradient id="sphere" cx="0.35" cy="0.3" r="0.75">
      <stop offset="0" stop-color="#B9D0F7"/>
      <stop offset="0.35" stop-color="#3D6BC9"/>
      <stop offset="1" stop-color="#0E2566"/>
    </radialGradient>
  </defs>
  <!-- moustaches -->
  <g stroke="#1F3F8F" stroke-width="8" stroke-linecap="round">
    <line x1="70" y1="268" x2="24" y2="252"/>
    <line x1="70" y1="292" x2="20" y2="292"/>
    <line x1="70" y1="316" x2="24" y2="332"/>
    <line x1="442" y1="268" x2="488" y2="252"/>
    <line x1="442" y1="292" x2="492" y2="292"/>
    <line x1="442" y1="316" x2="488" y2="332"/>
  </g>
  <!-- bulle de discussion à oreilles de chat -->
  <path fill="url(#bulle)" d="
    M 136 150 L 150 70 Q 153 58 164 64 L 236 150
    L 276 150 L 348 64 Q 359 58 362 70 L 376 150
    L 376 150 Q 440 150 440 214 L 440 326 Q 440 390 376 390
    L 196 390 L 118 454 Q 106 462 108 448 L 124 390
    Q 72 382 72 326 L 72 214 Q 72 150 136 150 Z"/>
  <path fill="#7FA6EA" d="M 160 88 L 170 146 L 210 146 Z"/>
  <path fill="#7FA6EA" d="M 352 88 L 342 146 L 302 146 Z"/>
  <!-- page du document -->
  <path fill="#FFFFFF" d="M 200 184 H 290 L 328 222 V 338 Q 328 354 312 354 H 200 Q 184 354 184 338 V 200 Q 184 184 200 184 Z"/>
  <path fill="#C9D8F2" d="M 290 184 V 212 Q 290 222 300 222 H 328 Z"/>
  <g stroke="#9DB6E3" stroke-width="9" stroke-linecap="round">
    <line x1="204" y1="214" x2="266" y2="214"/>
    <line x1="204" y1="240" x2="306" y2="240"/>
    <line x1="204" y1="266" x2="306" y2="266"/>
  </g>
  <!-- trois sphères reliées : clin d'œil au logo CGExcel -->
  <g stroke="#7FA6EA" stroke-width="5">
    <line x1="222" y1="318" x2="256" y2="300"/>
    <line x1="256" y1="300" x2="290" y2="318"/>
    <line x1="222" y1="318" x2="290" y2="318"/>
  </g>
  <circle cx="222" cy="318" r="14" fill="url(#sphere)"/>
  <circle cx="256" cy="300" r="14" fill="url(#sphere)"/>
  <circle cx="290" cy="318" r="14" fill="url(#sphere)"/>
</svg>
